<svg xmlns="http://www.w3.org/2000/svg" viewBox="0 0 920 470" width="100%" role="img" aria-label="Technology constellation">
  <defs>
    <pattern id="g3" width="40" height="40" patternUnits="userSpaceOnUse">
      <path d="M40 0H0V40" fill="none" stroke="#0f161d" stroke-width="1"/>
    </pattern>
    <style>
      .t{font-family:'SFMono-Regular',Consolas,monospace;fill:#e6edf3}
      .m{font-family:'SFMono-Regular',Consolas,monospace;fill:#7d8590}
    </style>
  </defs>
  <rect width="920" height="470" fill="#0a0e14"/>
  <rect width="920" height="470" fill="url(#g3)"/>
  <rect x="8" y="8" width="904" height="454" fill="none" stroke="#1c2530" stroke-width="1"/>

  <text x="40" y="44" class="m" font-size="12" letter-spacing="3">TECH CONSTELLATION // NETWORK TOPOLOGY</text>

  <g stroke="#2a3543" stroke-width="1" fill="none" opacity="0.8">
    <path d="M170 150 L430 210"/>
    <path d="M170 150 L540 150"/>
    <path d="M170 150 L320 320"/>
    <path d="M540 150 L660 120"/>
    <path d="M540 150 L700 250"/>
    <path d="M430 210 L320 320"/>
    <path d="M430 210 L300 230"/>
    <path d="M430 210 L250 400"/>
    <path d="M430 210 L430 420"/>
    <path d="M320 320 L610 380"/>
    <path d="M320 320 L250 400"/>
    <path d="M700 250 L830 210"/>
    <path d="M700 250 L800 360"/>
    <path d="M700 250 L610 380"/>
    <path d="M610 380 L430 420"/>
    <path d="M830 210 L800 360"/>
  </g>

  <g font-family="'SFMono-Regular',Consolas,monospace" text-anchor="middle">
    <circle cx="170" cy="150" r="18" fill="#0d1117" stroke="#3fb950" stroke-width="2"/>
    <text x="170" y="155" fill="#e6edf3" font-size="12">JAVA</text>

    <circle cx="540" cy="150" r="18" fill="#0d1117" stroke="#3fb950" stroke-width="2"/>
    <text x="540" y="155" fill="#e6edf3" font-size="11">JS</text>

    <circle cx="320" cy="320" r="16" fill="#0d1117" stroke="#58a6ff" stroke-width="2"/>
    <text x="320" y="324" fill="#e6edf3" font-size="11">PY</text>

    <circle cx="700" cy="250" r="14" fill="#0d1117" stroke="#58a6ff" stroke-width="2"/>
    <text x="700" y="254" fill="#e6edf3" font-size="10">TS</text>

    <circle cx="430" cy="210" r="13" fill="#0d1117" stroke="#1f6feb" stroke-width="2"/>
    <text x="430" y="214" fill="#e6edf3" font-size="9">NODE</text>

    <circle cx="660" cy="120" r="12" fill="#0d1117" stroke="#1f6feb" stroke-width="2"/>
    <text x="660" y="124" fill="#e6edf3" font-size="9">REACT</text>

    <circle cx="250" cy="400" r="12" fill="#0d1117" stroke="#a371f7" stroke-width="2"/>
    <text x="250" y="404" fill="#e6edf3" font-size="9">PG</text>

    <circle cx="430" cy="420" r="12" fill="#0d1117" stroke="#a371f7" stroke-width="2"/>
    <text x="430" y="424" fill="#e6edf3" font-size="8">MONGO</text>

    <circle cx="800" cy="360" r="13" fill="#0d1117" stroke="#d29922" stroke-width="2"/>
    <text x="800" y="364" fill="#e6edf3" font-size="9">DKR</text>

    <circle cx="830" cy="210" r="12" fill="#0d1117" stroke="#d29922" stroke-width="2"/>
    <text x="830" y="214" fill="#e6edf3" font-size="8">LNX</text>

    <circle cx="300" cy="230" r="10" fill="#0d1117" stroke="#3fb950" stroke-width="2"/>
    <text x="300" y="234" fill="#e6edf3" font-size="8">FAST</text>

    <circle cx="610" cy="380" r="12" fill="#0d1117" stroke="#3fb950" stroke-width="2"/>
    <text x="610" y="384" fill="#e6edf3" font-size="8">AI/ML</text>
  </g>

  <text x="880" y="458" text-anchor="end" class="m" font-size="10" letter-spacing="1">node size ≈ proficiency</text>
</svg>
