<svg xmlns="http://www.w3.org/2000/svg" viewBox="0 0 1100 700" width="1100" height="700">
  <defs>
    <style type="text/css"><![CDATA[
      @keyframes pu { 0%,100% { opacity:.3; } 50% { opacity:1; } }
      @keyframes bl { 0%,55% { opacity:1; } 56%,100% { opacity:0; } }
      @keyframes fadeIn { from { opacity:0; } to { opacity:1; } }
      text { font-family:'Segoe UI',system-ui,-apple-system,sans-serif; }
      .m { font-family:'Cascadia Code','SF Mono',Consolas,'Courier New',monospace; }
      .fade { opacity:0; animation:fadeIn .4s ease-out both; }
    ]]></style>
    <linearGradient id="topG" x1="0" y1="0" x2="1" y2="0">
      <stop offset="0%" stop-color="#E63946"/>
      <stop offset="60%" stop-color="#E63946" stop-opacity="0.5"/>
      <stop offset="100%" stop-color="#E63946" stop-opacity="0"/>
    </linearGradient>
    <linearGradient id="redG" x1="0" y1="0" x2="1" y2="0">
      <stop offset="0%" stop-color="#E63946"/>
      <stop offset="100%" stop-color="#FF6B6B"/>
    </linearGradient>
    <linearGradient id="greenG" x1="0" y1="0" x2="1" y2="0">
      <stop offset="0%" stop-color="#3FB950"/>
      <stop offset="100%" stop-color="#3FB950" stop-opacity="0"/>
    </linearGradient>
    <linearGradient id="cyanG" x1="0" y1="0" x2="1" y2="0">
      <stop offset="0%" stop-color="#A8DADC"/>
      <stop offset="100%" stop-color="#A8DADC" stop-opacity="0"/>
    </linearGradient>
    <linearGradient id="cardHi" x1="0" y1="0" x2="0" y2="1">
      <stop offset="0%" stop-color="#ffffff" stop-opacity="0.06"/>
      <stop offset="100%" stop-color="#ffffff" stop-opacity="0"/>
    </linearGradient>
    <linearGradient id="beamG" x1="0" y1="0" x2="1" y2="0">
      <stop offset="0%" stop-color="#A8DADC" stop-opacity="0"/>
      <stop offset="50%" stop-color="#A8DADC" stop-opacity="0.5"/>
      <stop offset="100%" stop-color="#A8DADC" stop-opacity="0"/>
    </linearGradient>
    <pattern id="scan" width="6" height="4" patternUnits="userSpaceOnUse">
      <rect width="6" height="4" fill="none"/>
      <line x1="0" y1="3" x2="6" y2="3" stroke="#A8DADC" stroke-width="0.5" opacity="0.5"/>
    </pattern>
    <clipPath id="panelClip">
      <rect x="16" y="16" width="1068" height="668"/>
    </clipPath>
  </defs>
  <rect width="1100" height="700" fill="#070910"/>

  <g>
    <rect x="15" y="15" width="1070" height="670" fill="none" stroke="#E63946" stroke-width="2" opacity="0.05"/>
    <rect x="16" y="16" width="1068" height="668" fill="none" stroke="#1c2233" stroke-width="1.2"/>
    <path d="M30 38 H46 M30 38 V22" stroke="#E63946" stroke-width="2" fill="none" opacity="0.7"/>
    <path d="M1070 38 H1054 M1070 38 V22" stroke="#E63946" stroke-width="2" fill="none" opacity="0.7"/>
    <path d="M30 682 H46 M30 682 V698" stroke="#E63946" stroke-width="2" fill="none" opacity="0.7"/>
    <path d="M1070 682 H1054 M1070 682 V698" stroke="#E63946" stroke-width="2" fill="none" opacity="0.7"/>
  </g>

  <g clip-path="url(#panelClip)">
    <rect width="1100" height="700" fill="url(#scan)" opacity="0.5"/>
    <rect width="1100" height="3" fill="url(#beamG)" opacity="0.3">
      <animate attributeName="y" values="30;660;30" dur="7s" repeatCount="indefinite"/>
    </rect>
  </g>

  <text x="982" y="640" class="m" font-size="150" font-weight="700" fill="#E63946" opacity="0.045">03</text>

  <g class="m">
    <text x="38" y="52" font-size="13" fill="#E63946">[##]</text>
    <text x="70" y="52" font-size="15" letter-spacing="4" fill="#E6EDF3">CURRENT MISSIONS</text>
    <text x="1040" y="52" text-anchor="end" font-size="10" fill="#8B949E">~/namann5/missions</text>
    <circle cx="1058" cy="48" r="3" fill="#3FB950" style="animation:pu 1.6s ease-in-out infinite"/>
    <text x="1070" y="52" text-anchor="end" font-size="8" fill="#3FB950" letter-spacing="1">OP::ONLINE</text>
  </g>
  <line x1="36" y1="66" x2="1064" y2="66" stroke="url(#topG)" stroke-width="1.4"/>

  <g class="m">
    <text x="40" y="100" font-size="11" letter-spacing="3" fill="#8B949E">ACTIVE MISSIONS // <tspan fill="#FF6B6B">3 DEPLOYED</tspan></text>

    <g>
      <rect x="40" y="116" width="520" height="156" rx="6" fill="#000" opacity="0.35" transform="translate(6,7)"/>
      <rect x="40" y="116" width="520" height="156" rx="6" fill="#0b0e17" stroke="#1c2233"/>
      <rect x="40" y="116" width="520" height="4" rx="2" fill="url(#redG)"/>
      <rect x="40" y="116" width="520" height="156" rx="6" fill="url(#cardHi)"/>
      <path d="M52 128 H64 M52 128 V116" stroke="#E63946" stroke-width="1.5" fill="none" opacity="0.8"/>
      <text x="68" y="152" font-size="10" fill="#E63946">[01]</text>
      <text x="110" y="152" font-size="13" font-weight="600" fill="#E6EDF3">MASTER SYSTEM DESIGN</text>
      <rect x="420" y="136" width="92" height="22" rx="4" fill="#1a0f14" stroke="#E63946" stroke-width="0.8"/>
      <text x="466" y="151" font-size="9" fill="#FF6B6B" text-anchor="middle">ACTIVE</text>
      <text x="68" y="184" font-size="10" fill="#8B949E">Design blueprints end-to-end: scale, queues, caching,</text>
      <text x="68" y="202" font-size="10" fill="#8B949E">observability, and failure modes.</text>
      <text x="68" y="238" font-size="9" fill="#484f58">PROGRESS</text>
      <rect x="140" y="228" width="300" height="7" rx="3.5" fill="#0e1322" stroke="#1c2233"/>
      <rect x="140" y="228" width="0" height="7" rx="3.5" fill="#E63946">
        <animate attributeName="width" from="0" to="195" dur="1.2s" fill="freeze" begin="0.3s"/>
      </rect>
      <text x="450" y="236" font-size="10" font-weight="700" fill="#FF6B6B">65%</text>
    </g>

    <g>
      <rect x="40" y="288" width="520" height="156" rx="6" fill="#000" opacity="0.35" transform="translate(6,7)"/>
      <rect x="40" y="288" width="520" height="156" rx="6" fill="#0b0e17" stroke="#1c2233"/>
      <rect x="40" y="288" width="520" height="4" rx="2" fill="url(#greenG)"/>
      <rect x="40" y="288" width="520" height="156" rx="6" fill="url(#cardHi)"/>
      <path d="M52 300 H64 M52 300 V288" stroke="#3FB950" stroke-width="1.5" fill="none" opacity="0.8"/>
      <text x="68" y="324" font-size="10" fill="#3FB950">[02]</text>
      <text x="110" y="324" font-size="13" font-weight="600" fill="#E6EDF3">SHIP PROJECT PORTFOLIO</text>
      <rect x="420" y="308" width="108" height="22" rx="4" fill="#0f1c14" stroke="#3FB950" stroke-width="0.8"/>
      <text x="474" y="323" font-size="9" fill="#3FB950" text-anchor="middle">DEPLOYED âœ“</text>
      <text x="68" y="356" font-size="10" fill="#8B949E">DeepScan, AutoPilot, AnimeVerse and AI Support</text>
      <text x="68" y="374" font-size="10" fill="#8B949E">live, documented and open.</text>
      <text x="68" y="410" font-size="9" fill="#484f58">PROGRESS</text>
      <rect x="140" y="400" width="300" height="7" rx="3.5" fill="#0e1322" stroke="#1c2233"/>
      <rect x="140" y="400" width="300" height="7" rx="3.5" fill="#3FB950"/>
      <text x="450" y="408" font-size="10" font-weight="700" fill="#3FB950">100%</text>
    </g>

    <g>
      <rect x="40" y="460" width="520" height="156" rx="6" fill="#000" opacity="0.35" transform="translate(6,7)"/>
      <rect x="40" y="460" width="520" height="156" rx="6" fill="#0b0e17" stroke="#1c2233"/>
      <rect x="40" y="460" width="520" height="4" rx="2" fill="url(#cyanG)"/>
      <rect x="40" y="460" width="520" height="156" rx="6" fill="url(#cardHi)"/>
      <path d="M52 472 H64 M52 472 V460" stroke="#A8DADC" stroke-width="1.5" fill="none" opacity="0.8"/>
      <text x="68" y="496" font-size="10" fill="#A8DADC">[03]</text>
      <text x="110" y="496" font-size="13" font-weight="600" fill="#E6EDF3">CONQUER CONTESTS 1700+</text>
      <rect x="420" y="480" width="104" height="22" rx="4" fill="#0e1422" stroke="#3B82F6" stroke-width="0.8"/>
      <text x="472" y="495" font-size="9" fill="#3B82F6" text-anchor="middle">ON TRACK</text>
      <text x="68" y="528" font-size="10" fill="#8B949E">Consistent contests, upsolving and pattern mastery.</text>
      <text x="68" y="546" font-size="10" fill="#8B949E">Rating climbing every sprint.</text>
      <text x="68" y="582" font-size="9" fill="#484f58">PROGRESS</text>
      <rect x="140" y="572" width="300" height="7" rx="3.5" fill="#0e1322" stroke="#1c2233"/>
      <rect x="140" y="572" width="0" height="7" rx="3.5" fill="#A8DADC">
        <animate attributeName="width" from="0" to="126" dur="1.2s" fill="freeze" begin="0.5s"/>
      </rect>
      <text x="450" y="580" font-size="10" font-weight="700" fill="#A8DADC">42%</text>
    </g>
  </g>

  <g class="m">
    <rect x="580" y="116" width="480" height="500" rx="6" fill="#000" opacity="0.35" transform="translate(6,7)"/>
    <rect x="580" y="116" width="480" height="500" rx="6" fill="#0b0e17" stroke="#1c2233"/>
    <rect x="580" y="116" width="480" height="4" rx="2" fill="url(#redG)"/>
    <rect x="580" y="116" width="480" height="500" rx="6" fill="url(#cardHi)"/>
    <path d="M592 128 H604 M592 128 V116" stroke="#E63946" stroke-width="1.5" fill="none" opacity="0.8"/>
    <text x="604" y="152" font-size="11" letter-spacing="3" fill="#8B949E">MISSION LOG // <tspan fill="#3FB950">STREAMING</tspan></text>
    <line x1="604" y1="168" x2="1036" y2="168" stroke="#1c2233" stroke-width="1"/>

    <text x="604" y="198" font-size="10" fill="#484f58">[14:37]</text>
    <text x="672" y="198" font-size="10" fill="#A8DADC">merge pr #42</text>
    <text x="820" y="198" font-size="10" fill="#3FB950">âœ“</text>
    <text x="604" y="224" font-size="10" fill="#484f58">[13:02]</text>
    <text x="672" y="224" font-size="10" fill="#A8DADC">debug redis latency spike</text>
    <text x="836" y="224" font-size="10" fill="#FF6B6B">FIXED</text>
    <text x="604" y="250" font-size="10" fill="#484f58">[11:45]</text>
    <text x="672" y="250" font-size="10" fill="#A8DADC">ship feature/auth-mfa</text>
    <text x="836" y="250" font-size="10" fill="#3B82F6">SHIPPED</text>
    <text x="604" y="276" font-size="10" fill="#484f58">[09:20]</text>
    <text x="672" y="276" font-size="10" fill="#A8DADC">commit 7e3a1f9</text>
    <text x="604" y="302" font-size="10" fill="#484f58">[08:10]</text>
    <text x="672" y="302" font-size="10" fill="#A8DADC">sync profile readme</text>
    <text x="836" y="302" font-size="10" fill="#3FB950">DONE</text>
    <text x="604" y="328" font-size="10" fill="#484f58">[07:44]</text>
    <text x="672" y="328" font-size="10" fill="#A8DADC">write system-design notes</text>
    <text x="604" y="354" font-size="10" fill="#484f58">[06:30]</text>
    <text x="672" y="354" font-size="10" fill="#A8DADC">upsolve weekly contest</text>
    <text x="836" y="354" font-size="10" fill="#3B82F6">+120</text>
    <text x="604" y="380" font-size="10" fill="#484f58">[05:12]</text>
    <text x="672" y="380" font-size="10" fill="#A8DADC">setup ci/cd on all repos</text>
    <text x="836" y="380" font-size="10" fill="#3FB950">GREEN</text>

    <line x1="604" y1="404" x2="1036" y2="404" stroke="#1c2233" stroke-width="1"/>
    <text x="604" y="432" font-size="10" fill="#8B949E">&gt; <tspan fill="#E6EDF3">processing incoming directives</tspan></text>
    <text x="604" y="456" font-size="10" fill="#8B949E">&gt; <tspan fill="#A8DADC">evaluating next priority_</tspan><tspan fill="#E63946">_</tspan></text>
    <text x="604" y="490" font-size="10" fill="#484f58">STANDBY</text>
    <circle cx="676" cy="487" r="3" fill="#E63946" opacity="0.35"/>
    <circle cx="690" cy="487" r="3" fill="#E63946" opacity="0.35"/>
    <circle cx="704" cy="487" r="3" fill="#E63946">
      <animate attributeName="opacity" values="0.35;1;0.35" dur="1.2s" repeatCount="indefinite"/>
    </circle>
    <text x="604" y="556" font-size="11" fill="#3FB950">&gt; awaiting next mission directive_</text>
  </g>

  <text x="40" y="692" class="m" font-size="8" fill="#484f58">NAM5//MISSIONS</text>
  <text x="1060" y="692" class="m" font-size="8" fill="#484f58" text-anchor="end">CONTROL &amp; COMMAND</text>
</svg>
