<svg xmlns="http://www.w3.org/2000/svg" xmlns:xlink="http://www.w3.org/1999/xlink" viewBox="0 0 1100 520" width="1100" height="520">
  <defs>
    <style type="text/css"><![CDATA[
      text { font-family:'Cascadia Code','JetBrains Mono',Consolas,'Courier New',monospace; }
      .w { fill:#E6EDF3; }
      .r { fill:#FF304F; }
      .b { fill:#2196FF; }
      .c { fill:#63E6FF; }
      .g { fill:#8B949E; }
      .d { fill:#3D4654; }
    ]]></style>
    <linearGradient id="topG" x1="0" y1="0" x2="1" y2="0">
      <stop offset="0%" stop-color="#FF304F"/>
      <stop offset="55%" stop-color="#FF304F" stop-opacity="0.55"/>
      <stop offset="100%" stop-color="#FF304F" stop-opacity="0"/>
    </linearGradient>
    <linearGradient id="blueG" x1="0" y1="0" x2="1" y2="0">
      <stop offset="0%" stop-color="#2196FF"/>
      <stop offset="100%" stop-color="#2196FF" stop-opacity="0"/>
    </linearGradient>
    <pattern id="scan" width="6" height="4" patternUnits="userSpaceOnUse">
      <rect width="6" height="4" fill="none"/>
      <line x1="0" y1="3" x2="6" y2="3" stroke="#63E6FF" stroke-width="0.5" opacity="0.2"/>
    </pattern>
    <clipPath id="panelClip"><rect x="16" y="16" width="1068" height="488"/></clipPath>
  </defs>

  <rect width="1100" height="520" fill="#05060A"/>
  <g clip-path="url(#panelClip)">
    <rect width="1100" height="520" fill="url(#scan)"/>
    <rect width="1100" height="3" fill="url(#blueG)" opacity="0.3">
      <animate attributeName="y" values="20;500;20" dur="8s" repeatCount="indefinite"/>
    </rect>
  </g>
  <rect x="15" y="15" width="1070" height="490" fill="none" stroke="#1C2433" stroke-width="1.2"/>
  <path d="M30 38 H46 M30 38 V22" stroke="#FF304F" stroke-width="2" fill="none"/>
  <path d="M1070 38 H1054 M1070 38 V22" stroke="#FF304F" stroke-width="2" fill="none"/>
  <path d="M30 502 H46 M30 502 V518" stroke="#FF304F" stroke-width="2" fill="none"/>
  <path d="M1070 502 H1054 M1070 502 V518" stroke="#FF304F" stroke-width="2" fill="none"/>

  <text x="38" y="46" class="r" font-size="13" font-weight="700">[S2]</text>
  <text x="82" y="46" class="w" font-size="13" letter-spacing="4">TECH_ARSENAL</text>
  <text x="1040" y="46" text-anchor="end" class="g" font-size="11">~/namann5/stack --evidence</text>
  <circle cx="1054" cy="42" r="3" fill="#3FB950">
    <animate attributeName="opacity" values="1;0.3;1" dur="1.5s" repeatCount="indefinite"/>
  </circle>
  <line x1="36" y1="60" x2="1064" y2="60" stroke="url(#topG)" stroke-width="1.4"/>

  <text x="982" y="462" class="r" font-size="150" font-weight="700" opacity="0.04">02</text>

  <g class="module" font-size="10">
    <g>
      <rect x="40" y="84" width="326" height="190" rx="6" fill="#080B12" stroke="#1C2433"/>
      <rect x="40" y="84" width="326" height="4" rx="2" fill="#FF304F"/>
      <text x="56" y="112" class="r" font-size="11" font-weight="700">MODULE_LANG</text>
      <text x="348" y="112" class="d" text-anchor="end">01</text>
      <rect x="56" y="130" width="88" height="26" rx="4" fill="#150a10" stroke="#FF304F" stroke-width="0.7"/>
      <text x="100" y="147" class="w" text-anchor="middle">JavaScript</text>
      <rect x="152" y="130" width="84" height="26" rx="4" fill="#150a10" stroke="#FF304F" stroke-width="0.7"/>
      <text x="194" y="147" class="w" text-anchor="middle">TypeScript</text>
      <rect x="244" y="130" width="80" height="26" rx="4" fill="#150a10" stroke="#FF304F" stroke-width="0.7"/>
      <text x="284" y="147" class="w" text-anchor="middle">Python</text>
      <rect x="56" y="164" width="66" height="26" rx="4" fill="#150a10" stroke="#FF304F" stroke-width="0.7"/>
      <text x="89" y="181" class="w" text-anchor="middle">Java</text>
      <rect x="130" y="164" width="60" height="26" rx="4" fill="#150a10" stroke="#FF304F" stroke-width="0.7"/>
      <text x="160" y="181" class="w" text-anchor="middle">SQL</text>
      <rect x="198" y="164" width="126" height="26" rx="4" fill="#150a10" stroke="#FF304F" stroke-width="0.7"/>
      <text x="261" y="181" class="w" text-anchor="middle">HTML / CSS</text>
      <text x="56" y="224" class="d" font-size="9">// 6 active languages &#8226; powered by caffeine</text>
      <text x="56" y="248" class="d" font-size="9">// measured from repo byte-age (top-10 modules)</text>
    </g>
    <g>
      <rect x="387" y="84" width="326" height="190" rx="6" fill="#080B12" stroke="#1C2433"/>
      <rect x="387" y="84" width="326" height="4" rx="2" fill="#2196FF"/>
      <text x="403" y="112" class="b" font-size="11" font-weight="700">MODULE_FRONTEND</text>
      <text x="695" y="112" class="d" text-anchor="end">02</text>
      <rect x="403" y="130" width="72" height="26" rx="4" fill="#0a1420" stroke="#2196FF" stroke-width="0.7"/>
      <text x="439" y="147" class="w" text-anchor="middle">React</text>
      <rect x="483" y="130" width="76" height="26" rx="4" fill="#0a1420" stroke="#2196FF" stroke-width="0.7"/>
      <text x="521" y="147" class="w" text-anchor="middle">Redux</text>
      <rect x="567" y="130" width="90" height="26" rx="4" fill="#0a1420" stroke="#2196FF" stroke-width="0.7"/>
      <text x="612" y="147" class="w" text-anchor="middle">Next.js</text>
      <rect x="665" y="130" width="34" height="26" rx="4" fill="#0a1420" stroke="#2196FF" stroke-width="0.7"/>
      <text x="682" y="147" class="w" text-anchor="middle">Vite</text>
      <rect x="403" y="164" width="66" height="26" rx="4" fill="#0a1420" stroke="#2196FF" stroke-width="0.7"/>
      <text x="436" y="181" class="w" text-anchor="middle">SCSS</text>
      <rect x="477" y="164" width="60" height="26" rx="4" fill="#0a1420" stroke="#2196FF" stroke-width="0.7"/>
      <text x="507" y="181" class="w" text-anchor="middle">EJS</text>
      <text x="403" y="224" class="d" font-size="9">// shipped ui in react+redux, next.js, vite</text>
      <text x="403" y="248" class="d" font-size="9">// evidence: Weather, Webiu, noctratech-web, MergeShip</text>
    </g>
    <g>
      <rect x="734" y="84" width="326" height="190" rx="6" fill="#080B12" stroke="#1C2433"/>
      <rect x="734" y="84" width="326" height="4" rx="2" fill="#63E6FF"/>
      <text x="750" y="112" class="c" font-size="11" font-weight="700">MODULE_BACKEND</text>
      <text x="1042" y="112" class="d" text-anchor="end">03</text>
      <rect x="750" y="130" width="92" height="26" rx="4" fill="#0a1418" stroke="#63E6FF" stroke-width="0.7"/>
      <text x="796" y="147" class="w" text-anchor="middle">Node.js</text>
      <rect x="850" y="130" width="92" height="26" rx="4" fill="#0a1418" stroke="#63E6FF" stroke-width="0.7"/>
      <text x="896" y="147" class="w" text-anchor="middle">Express</text>
      <rect x="950" y="130" width="94" height="26" rx="4" fill="#0a1418" stroke="#63E6FF" stroke-width="0.7"/>
      <text x="997" y="147" class="w" text-anchor="middle">FastAPI</text>
      <rect x="750" y="164" width="110" height="26" rx="4" fill="#0a1418" stroke="#63E6FF" stroke-width="0.7"/>
      <text x="805" y="181" class="w" text-anchor="middle">REST APIs</text>
      <text x="750" y="224" class="d" font-size="9">// node/express for the web, python for the scary AI</text>
      <text x="750" y="248" class="d" font-size="9">// evidence: Ai_deepfake, SecuScan, HELPDESK.AI</text>
    </g>
    <g>
      <rect x="40" y="292" width="326" height="190" rx="6" fill="#080B12" stroke="#1C2433"/>
      <rect x="40" y="292" width="326" height="4" rx="2" fill="#FF6B6B"/>
      <text x="56" y="320" class="r" font-size="11" font-weight="700">MODULE_DATABASE</text>
      <text x="348" y="320" class="d" text-anchor="end">04</text>
      <rect x="56" y="338" width="120" height="26" rx="4" fill="#150a10" stroke="#FF6B6B" stroke-width="0.7"/>
      <text x="116" y="355" class="w" text-anchor="middle">MongoDB</text>
      <rect x="184" y="338" width="126" height="26" rx="4" fill="#150a10" stroke="#FF6B6B" stroke-width="0.7"/>
      <text x="247" y="355" class="w" text-anchor="middle">PostgreSQL</text>
      <text x="56" y="412" class="d" font-size="9">// mongodb on Ai_deepfake &#8226; plpgsql in MergeShip</text>
      <text x="56" y="436" class="d" font-size="9">// and HELPDESK.AI &#8212; indexes before they ask.</text>
      <circle cx="340" cy="420" r="12" fill="none" stroke="#FF6B6B" stroke-width="0.8">
        <animate attributeName="r" values="6;26" dur="2.6s" repeatCount="indefinite"/>
        <animate attributeName="opacity" values="0.6;0" dur="2.6s" repeatCount="indefinite"/>
      </circle>
      <circle cx="340" cy="420" r="2.5" fill="#FF6B6B"/>
    </g>
    <g>
      <rect x="387" y="292" width="326" height="190" rx="6" fill="#080B12" stroke="#1C2433"/>
      <rect x="387" y="292" width="326" height="4" rx="2" fill="#2196FF"/>
      <text x="403" y="320" class="b" font-size="11" font-weight="700">MODULE_DEVOPS</text>
      <text x="695" y="320" class="d" text-anchor="end">05</text>
      <rect x="403" y="338" width="82" height="26" rx="4" fill="#0a1420" stroke="#2196FF" stroke-width="0.7"/>
      <text x="444" y="355" class="w" text-anchor="middle">Docker</text>
      <rect x="493" y="338" width="126" height="26" rx="4" fill="#0a1420" stroke="#2196FF" stroke-width="0.7"/>
      <text x="556" y="355" class="w" text-anchor="middle">GitHub Actions</text>
      <rect x="627" y="338" width="70" height="26" rx="4" fill="#0a1420" stroke="#2196FF" stroke-width="0.7"/>
      <text x="662" y="355" class="w" text-anchor="middle">Vercel</text>
      <rect x="403" y="372" width="64" height="26" rx="4" fill="#0a1420" stroke="#2196FF" stroke-width="0.7"/>
      <text x="435" y="389" class="w" text-anchor="middle">CI/CD</text>
      <text x="403" y="432" class="d" font-size="9">// containerize it, pipeline it, ship it</text>
      <text x="403" y="456" class="d" font-size="9">// evidence: Dockerfiles + CI on 4+ repos</text>
    </g>
    <g>
      <rect x="734" y="292" width="326" height="190" rx="6" fill="#080B12" stroke="#1C2433"/>
      <rect x="734" y="292" width="326" height="4" rx="2" fill="#63E6FF"/>
      <text x="750" y="320" class="c" font-size="11" font-weight="700">MODULE_TOOLS</text>
      <text x="1042" y="320" class="d" text-anchor="end">06</text>
      <rect x="750" y="338" width="54" height="26" rx="4" fill="#0a1418" stroke="#63E6FF" stroke-width="0.7"/>
      <text x="777" y="355" class="w" text-anchor="middle">Git</text>
      <rect x="812" y="338" width="64" height="26" rx="4" fill="#0a1418" stroke="#63E6FF" stroke-width="0.7"/>
      <text x="844" y="355" class="w" text-anchor="middle">Linux</text>
      <rect x="884" y="338" width="60" height="26" rx="4" fill="#0a1418" stroke="#63E6FF" stroke-width="0.7"/>
      <text x="914" y="355" class="w" text-anchor="middle">Shell</text>
      <rect x="952" y="338" width="94" height="26" rx="4" fill="#0a1418" stroke="#63E6FF" stroke-width="0.7"/>
      <text x="999" y="355" class="w" text-anchor="middle">PowerShell</text>
      <rect x="750" y="372" width="78" height="26" rx="4" fill="#0a1418" stroke="#63E6FF" stroke-width="0.7"/>
      <text x="789" y="389" class="w" text-anchor="middle">LeetHub</text>
      <text x="750" y="432" class="d" font-size="9">// debug-by-print supremacy since the beginning</text>
      <text x="750" y="456" class="d" font-size="9">// leetcode auto-commits: 95KB of java and counting</text>
    </g>
  </g>
</svg>
