<svg xmlns="http://www.w3.org/2000/svg" width="1200" height="920" viewBox="0 0 1200 920" role="img" aria-label="Weaving diagram: 13 vertical threads for repositories I do not own (thickest HELPDESK.AI, 57 merged PRs) crossed by 10 horizontal bands for months (thickest June 2026, 63), February 2026 left as an empty band, with a warm selvedge strip at the left holding 5 of my own repositories (7 PRs).">
<title>The weave: 179 merged pull requests across 13 repositories I do not own, by month</title>
<rect x="0" y="0" width="1200" height="920" fill="#f6f4ef"/>
<rect x="0" y="170.00" width="1200" height="6.49" fill="#bfb198"/>
<rect x="0" y="176.49" width="1200" height="3.25" fill="#bfb198"/>
<rect x="0" y="185.74" width="1200" height="3.25" fill="#bfb198"/>
<rect x="0" y="188.99" width="1200" height="45.46" fill="#bfb198"/>
<rect x="0" y="234.45" width="1200" height="103.91" fill="#bfb198"/>
<rect x="0" y="338.37" width="1200" height="204.58" fill="#bfb198"/>
<rect x="0" y="542.95" width="1200" height="159.12" fill="#bfb198"/>
<rect x="0" y="702.06" width="1200" height="71.44" fill="#bfb198"/>
<rect x="0" y="773.51" width="1200" height="6.49" fill="#bfb198"/>
<rect x="40.00" y="0" width="13.50" height="860" fill="#b5651d"/>
<rect x="59.50" y="0" width="4.50" height="860" fill="#b5651d"/>
<rect x="70.00" y="0" width="4.50" height="860" fill="#b5651d"/>
<rect x="80.50" y="0" width="4.50" height="860" fill="#b5651d"/>
<rect x="91.00" y="0" width="4.50" height="860" fill="#b5651d"/>
<rect x="100.00" y="0" width="256.50" height="860" fill="#3d5a80"/>
<rect x="372.50" y="0" width="135.00" height="860" fill="#3d5a80"/>
<rect x="523.50" y="0" width="112.50" height="860" fill="#3d5a80"/>
<rect x="652.00" y="0" width="94.50" height="860" fill="#3d5a80"/>
<rect x="762.50" y="0" width="67.50" height="860" fill="#3d5a80"/>
<rect x="846.00" y="0" width="54.00" height="860" fill="#3d5a80"/>
<rect x="916.00" y="0" width="49.50" height="860" fill="#3d5a80"/>
<rect x="981.50" y="0" width="9.00" height="860" fill="#3d5a80"/>
<rect x="1006.50" y="0" width="9.00" height="860" fill="#3d5a80"/>
<rect x="1031.50" y="0" width="4.50" height="860" fill="#3d5a80"/>
<rect x="1052.00" y="0" width="4.50" height="860" fill="#3d5a80"/>
<rect x="1072.50" y="0" width="4.50" height="860" fill="#3d5a80"/>
<rect x="1093.00" y="0" width="4.50" height="860" fill="#3d5a80"/>
<rect x="40.00" y="0" width="13.50" height="860" fill="#b5651d"/>
<rect x="59.50" y="0" width="4.50" height="860" fill="#b5651d"/>
<rect x="70.00" y="0" width="4.50" height="860" fill="#b5651d"/>
<rect x="80.50" y="0" width="4.50" height="860" fill="#b5651d"/>
<rect x="91.00" y="0" width="4.50" height="860" fill="#b5651d"/>
<rect x="40.00" y="176.49" width="13.50" height="3.25" fill="#bfb198"/>
<rect x="40.00" y="185.74" width="13.50" height="3.25" fill="#bfb198"/>
<rect x="40.00" y="234.45" width="13.50" height="103.91" fill="#bfb198"/>
<rect x="40.00" y="542.95" width="13.50" height="159.12" fill="#bfb198"/>
<rect x="40.00" y="773.51" width="13.50" height="6.49" fill="#bfb198"/>
<rect x="59.50" y="170.00" width="4.50" height="6.49" fill="#bfb198"/>
<rect x="59.50" y="188.99" width="4.50" height="45.46" fill="#bfb198"/>
<rect x="59.50" y="338.37" width="4.50" height="204.58" fill="#bfb198"/>
<rect x="59.50" y="702.06" width="4.50" height="71.44" fill="#bfb198"/>
<rect x="70.00" y="176.49" width="4.50" height="3.25" fill="#bfb198"/>
<rect x="70.00" y="185.74" width="4.50" height="3.25" fill="#bfb198"/>
<rect x="70.00" y="234.45" width="4.50" height="103.91" fill="#bfb198"/>
<rect x="70.00" y="542.95" width="4.50" height="159.12" fill="#bfb198"/>
<rect x="70.00" y="773.51" width="4.50" height="6.49" fill="#bfb198"/>
<rect x="80.50" y="170.00" width="4.50" height="6.49" fill="#bfb198"/>
<rect x="80.50" y="188.99" width="4.50" height="45.46" fill="#bfb198"/>
<rect x="80.50" y="338.37" width="4.50" height="204.58" fill="#bfb198"/>
<rect x="80.50" y="702.06" width="4.50" height="71.44" fill="#bfb198"/>
<rect x="91.00" y="176.49" width="4.50" height="3.25" fill="#bfb198"/>
<rect x="91.00" y="185.74" width="4.50" height="3.25" fill="#bfb198"/>
<rect x="91.00" y="234.45" width="4.50" height="103.91" fill="#bfb198"/>
<rect x="91.00" y="542.95" width="4.50" height="159.12" fill="#bfb198"/>
<rect x="91.00" y="773.51" width="4.50" height="6.49" fill="#bfb198"/>
<rect x="100.00" y="170.00" width="256.50" height="6.49" fill="#bfb198"/>
<rect x="100.00" y="188.99" width="256.50" height="45.46" fill="#bfb198"/>
<rect x="100.00" y="338.37" width="256.50" height="204.58" fill="#bfb198"/>
<rect x="100.00" y="702.06" width="256.50" height="71.44" fill="#bfb198"/>
<rect x="372.50" y="176.49" width="135.00" height="3.25" fill="#bfb198"/>
<rect x="372.50" y="185.74" width="135.00" height="3.25" fill="#bfb198"/>
<rect x="372.50" y="234.45" width="135.00" height="103.91" fill="#bfb198"/>
<rect x="372.50" y="542.95" width="135.00" height="159.12" fill="#bfb198"/>
<rect x="372.50" y="773.51" width="135.00" height="6.49" fill="#bfb198"/>
<rect x="523.50" y="170.00" width="112.50" height="6.49" fill="#bfb198"/>
<rect x="523.50" y="188.99" width="112.50" height="45.46" fill="#bfb198"/>
<rect x="523.50" y="338.37" width="112.50" height="204.58" fill="#bfb198"/>
<rect x="523.50" y="702.06" width="112.50" height="71.44" fill="#bfb198"/>
<rect x="652.00" y="176.49" width="94.50" height="3.25" fill="#bfb198"/>
<rect x="652.00" y="185.74" width="94.50" height="3.25" fill="#bfb198"/>
<rect x="652.00" y="234.45" width="94.50" height="103.91" fill="#bfb198"/>
<rect x="652.00" y="542.95" width="94.50" height="159.12" fill="#bfb198"/>
<rect x="652.00" y="773.51" width="94.50" height="6.49" fill="#bfb198"/>
<rect x="762.50" y="170.00" width="67.50" height="6.49" fill="#bfb198"/>
<rect x="762.50" y="188.99" width="67.50" height="45.46" fill="#bfb198"/>
<rect x="762.50" y="338.37" width="67.50" height="204.58" fill="#bfb198"/>
<rect x="762.50" y="702.06" width="67.50" height="71.44" fill="#bfb198"/>
<rect x="846.00" y="176.49" width="54.00" height="3.25" fill="#bfb198"/>
<rect x="846.00" y="185.74" width="54.00" height="3.25" fill="#bfb198"/>
<rect x="846.00" y="234.45" width="54.00" height="103.91" fill="#bfb198"/>
<rect x="846.00" y="542.95" width="54.00" height="159.12" fill="#bfb198"/>
<rect x="846.00" y="773.51" width="54.00" height="6.49" fill="#bfb198"/>
<rect x="916.00" y="170.00" width="49.50" height="6.49" fill="#bfb198"/>
<rect x="916.00" y="188.99" width="49.50" height="45.46" fill="#bfb198"/>
<rect x="916.00" y="338.37" width="49.50" height="204.58" fill="#bfb198"/>
<rect x="916.00" y="702.06" width="49.50" height="71.44" fill="#bfb198"/>
<rect x="981.50" y="176.49" width="9.00" height="3.25" fill="#bfb198"/>
<rect x="981.50" y="185.74" width="9.00" height="3.25" fill="#bfb198"/>
<rect x="981.50" y="234.45" width="9.00" height="103.91" fill="#bfb198"/>
<rect x="981.50" y="542.95" width="9.00" height="159.12" fill="#bfb198"/>
<rect x="981.50" y="773.51" width="9.00" height="6.49" fill="#bfb198"/>
<rect x="1006.50" y="170.00" width="9.00" height="6.49" fill="#bfb198"/>
<rect x="1006.50" y="188.99" width="9.00" height="45.46" fill="#bfb198"/>
<rect x="1006.50" y="338.37" width="9.00" height="204.58" fill="#bfb198"/>
<rect x="1006.50" y="702.06" width="9.00" height="71.44" fill="#bfb198"/>
<rect x="1031.50" y="176.49" width="4.50" height="3.25" fill="#bfb198"/>
<rect x="1031.50" y="185.74" width="4.50" height="3.25" fill="#bfb198"/>
<rect x="1031.50" y="234.45" width="4.50" height="103.91" fill="#bfb198"/>
<rect x="1031.50" y="542.95" width="4.50" height="159.12" fill="#bfb198"/>
<rect x="1031.50" y="773.51" width="4.50" height="6.49" fill="#bfb198"/>
<rect x="1052.00" y="170.00" width="4.50" height="6.49" fill="#bfb198"/>
<rect x="1052.00" y="188.99" width="4.50" height="45.46" fill="#bfb198"/>
<rect x="1052.00" y="338.37" width="4.50" height="204.58" fill="#bfb198"/>
<rect x="1052.00" y="702.06" width="4.50" height="71.44" fill="#bfb198"/>
<rect x="1072.50" y="176.49" width="4.50" height="3.25" fill="#bfb198"/>
<rect x="1072.50" y="185.74" width="4.50" height="3.25" fill="#bfb198"/>
<rect x="1072.50" y="234.45" width="4.50" height="103.91" fill="#bfb198"/>
<rect x="1072.50" y="542.95" width="4.50" height="159.12" fill="#bfb198"/>
<rect x="1072.50" y="773.51" width="4.50" height="6.49" fill="#bfb198"/>
<rect x="1093.00" y="170.00" width="4.50" height="6.49" fill="#bfb198"/>
<rect x="1093.00" y="188.99" width="4.50" height="45.46" fill="#bfb198"/>
<rect x="1093.00" y="338.37" width="4.50" height="204.58" fill="#bfb198"/>
<rect x="1093.00" y="702.06" width="4.50" height="71.44" fill="#bfb198"/>
<rect x="0" y="179.74" width="1200" height="6" fill="none" stroke="#8a8172" stroke-width="1" stroke-dasharray="4 4"/>
<line x1="1099.5" y1="173.25" x2="1105" y2="118" stroke="#6b6459" stroke-width="1"/>
<rect x="1106" y="110" width="44.1" height="16" fill="#f6f4ef"/>
<text x="1110" y="118" dominant-baseline="middle" font-family="ui-monospace, SFMono-Regular, Menlo, Consolas, monospace" font-size="11" fill="#2f2a24">Dec 2</text>
<line x1="1099.5" y1="178.12" x2="1105" y2="136" stroke="#6b6459" stroke-width="1"/>
<rect x="1106" y="128" width="44.1" height="16" fill="#f6f4ef"/>
<text x="1110" y="136" dominant-baseline="middle" font-family="ui-monospace, SFMono-Regular, Menlo, Consolas, monospace" font-size="11" fill="#2f2a24">Jan 1</text>
<line x1="1099.5" y1="182.74" x2="1105" y2="154" stroke="#6b6459" stroke-width="1"/>
<rect x="1106" y="146" width="44.1" height="16" fill="#f6f4ef"/>
<text x="1110" y="154" dominant-baseline="middle" font-family="ui-monospace, SFMono-Regular, Menlo, Consolas, monospace" font-size="11" fill="#2f2a24">Feb 0</text>
<line x1="1099.5" y1="187.37" x2="1105" y2="172" stroke="#6b6459" stroke-width="1"/>
<rect x="1106" y="164" width="44.1" height="16" fill="#f6f4ef"/>
<text x="1110" y="172" dominant-baseline="middle" font-family="ui-monospace, SFMono-Regular, Menlo, Consolas, monospace" font-size="11" fill="#2f2a24">Mar 1</text>
<rect x="1106" y="203.72043010752688" width="50.9" height="16" fill="#f6f4ef"/>
<text x="1110" y="211.72043010752688" dominant-baseline="middle" font-family="ui-monospace, SFMono-Regular, Menlo, Consolas, monospace" font-size="11" fill="#2f2a24">Apr 14</text>
<rect x="1106" y="278.40860215053766" width="50.9" height="16" fill="#f6f4ef"/>
<text x="1110" y="286.40860215053766" dominant-baseline="middle" font-family="ui-monospace, SFMono-Regular, Menlo, Consolas, monospace" font-size="11" fill="#2f2a24">May 32</text>
<rect x="1106" y="432.6559139784946" width="50.9" height="16" fill="#f6f4ef"/>
<text x="1110" y="440.6559139784946" dominant-baseline="middle" font-family="ui-monospace, SFMono-Regular, Menlo, Consolas, monospace" font-size="11" fill="#2f2a24">Jun 63</text>
<rect x="1106" y="614.505376344086" width="50.9" height="16" fill="#f6f4ef"/>
<text x="1110" y="622.505376344086" dominant-baseline="middle" font-family="ui-monospace, SFMono-Regular, Menlo, Consolas, monospace" font-size="11" fill="#2f2a24">Jul 49</text>
<rect x="1106" y="729.7849462365592" width="50.9" height="16" fill="#f6f4ef"/>
<text x="1110" y="737.7849462365592" dominant-baseline="middle" font-family="ui-monospace, SFMono-Regular, Menlo, Consolas, monospace" font-size="11" fill="#2f2a24">Aug 22</text>
<rect x="1106" y="768.752688172043" width="44.1" height="16" fill="#f6f4ef"/>
<text x="1110" y="776.752688172043" dominant-baseline="middle" font-family="ui-monospace, SFMono-Regular, Menlo, Consolas, monospace" font-size="11" fill="#2f2a24">Sep 2</text>
<g transform="rotate(-90 228.25 160)">
<rect x="228.25" y="152" width="92.0" height="16" fill="#f6f4ef"/>
<text x="232.25" y="160" dominant-baseline="middle" font-family="ui-monospace, SFMono-Regular, Menlo, Consolas, monospace" font-size="10" fill="#2f2a24">HELPDESK.AI 57</text>
</g>
<g transform="rotate(-90 440.00 160)">
<rect x="440.00" y="152" width="80.0" height="16" fill="#f6f4ef"/>
<text x="444.00" y="160" dominant-baseline="middle" font-family="ui-monospace, SFMono-Regular, Menlo, Consolas, monospace" font-size="10" fill="#2f2a24">MergeShip 30</text>
</g>
<g transform="rotate(-90 579.75 160)">
<rect x="579.75" y="152" width="86.0" height="16" fill="#f6f4ef"/>
<text x="583.75" y="160" dominant-baseline="middle" font-family="ui-monospace, SFMono-Regular, Menlo, Consolas, monospace" font-size="10" fill="#2f2a24">NyayaVanni 25</text>
</g>
<g transform="rotate(-90 699.25 160)">
<rect x="699.25" y="152" width="86.0" height="16" fill="#f6f4ef"/>
<text x="703.25" y="160" dominant-baseline="middle" font-family="ui-monospace, SFMono-Regular, Menlo, Consolas, monospace" font-size="10" fill="#2f2a24">spectrax_1 21</text>
</g>
<g transform="rotate(-90 796.25 160)">
<rect x="796.25" y="152" width="110.0" height="16" fill="#f6f4ef"/>
<text x="800.25" y="160" dominant-baseline="middle" font-family="ui-monospace, SFMono-Regular, Menlo, Consolas, monospace" font-size="10" fill="#2f2a24">UltimateHealth 15</text>
</g>
<g transform="rotate(-90 873.00 160)">
<rect x="873.00" y="152" width="74.0" height="16" fill="#f6f4ef"/>
<text x="877.00" y="160" dominant-baseline="middle" font-family="ui-monospace, SFMono-Regular, Menlo, Consolas, monospace" font-size="10" fill="#2f2a24">SecuScan 12</text>
</g>
<g transform="rotate(-90 940.75 160)">
<rect x="940.75" y="152" width="92.0" height="16" fill="#f6f4ef"/>
<text x="944.75" y="160" dominant-baseline="middle" font-family="ui-monospace, SFMono-Regular, Menlo, Consolas, monospace" font-size="10" fill="#2f2a24">skillbridge 11</text>
</g>
<g transform="rotate(-90 986.00 160)">
<rect x="986.00" y="152" width="104.0" height="16" fill="#f6f4ef"/>
<text x="990.00" y="160" dominant-baseline="middle" font-family="ui-monospace, SFMono-Regular, Menlo, Consolas, monospace" font-size="10" fill="#2f2a24">story-spark-ai 2</text>
</g>
<g transform="rotate(-90 1011.00 160)">
<rect x="1011.00" y="152" width="68.0" height="16" fill="#f6f4ef"/>
<text x="1015.00" y="160" dominant-baseline="middle" font-family="ui-monospace, SFMono-Regular, Menlo, Consolas, monospace" font-size="10" fill="#2f2a24">InterXAI 2</text>
</g>
<g transform="rotate(-90 1033.75 160)">
<rect x="1033.75" y="152" width="116.0" height="16" fill="#f6f4ef"/>
<text x="1037.75" y="160" dominant-baseline="middle" font-family="ui-monospace, SFMono-Regular, Menlo, Consolas, monospace" font-size="10" fill="#2f2a24">Demo-git-project 1</text>
</g>
<g transform="rotate(-90 1054.25 160)">
<rect x="1054.25" y="152" width="62.0" height="16" fill="#f6f4ef"/>
<text x="1058.25" y="160" dominant-baseline="middle" font-family="ui-monospace, SFMono-Regular, Menlo, Consolas, monospace" font-size="10" fill="#2f2a24">Weather 1</text>
</g>
<g transform="rotate(-90 1074.75 160)">
<rect x="1074.75" y="152" width="68.0" height="16" fill="#f6f4ef"/>
<text x="1078.75" y="160" dominant-baseline="middle" font-family="ui-monospace, SFMono-Regular, Menlo, Consolas, monospace" font-size="10" fill="#2f2a24">GitGenie 1</text>
</g>
<g transform="rotate(-90 1095.25 160)">
<rect x="1095.25" y="152" width="158.0" height="16" fill="#f6f4ef"/>
<text x="1099.25" y="160" dominant-baseline="middle" font-family="ui-monospace, SFMono-Regular, Menlo, Consolas, monospace" font-size="10" fill="#2f2a24">coheart-pulse-retention 1</text>
</g>
<g transform="rotate(-90 67.75 160)">
<rect x="67.75" y="152" width="110.0" height="16" fill="#f6f4ef"/>
<text x="71.75" y="160" dominant-baseline="middle" font-family="ui-monospace, SFMono-Regular, Menlo, Consolas, monospace" font-size="10" fill="#8a4b12">own repos · 7 PRs</text>
</g>
<text x="100" y="895" font-family="ui-monospace, SFMono-Regular, Menlo, Consolas, monospace" font-size="12" fill="#5c554a">Thread width ∝ merged PRs per repository (13 repositories I don’t own) · band height ∝ merged PRs per month · February 2026 had none.</text>
</svg>
